<?xml version="1.0" standalone="no"?>
<!DOCTYPE svg PUBLIC "-//W3C//DTD SVG 20010904//EN"
 "http://www.w3.org/TR/2001/REC-SVG-20010904/DTD/svg10.dtd">
<svg version="1.0" xmlns="http://www.w3.org/2000/svg"
 width="512.000000pt" height="512.000000pt" viewBox="0 0 512.000000 512.000000"
 preserveAspectRatio="xMidYMid meet">
<metadata>
Created by potrace 1.11, written by Peter Selinger 2001-2013
</metadata>
<g transform="translate(0.000000,512.000000) scale(0.100000,-0.100000)"
fill="#000000" stroke="none">
<path d="M978 5104 c-491 -76 -889 -477 -963 -971 -22 -146 -22 -3000 0 -3146
75 -498 474 -897 972 -972 146 -22 3000 -22 3146 0 498 75 897 474 972 972 22
146 22 3000 0 3146 -75 498 -474 897 -972 972 -139 21 -3020 21 -3155 -1z
m3239 -162 c365 -113 614 -361 725 -725 22 -71 22 -80 26 -829 l3 -758 -1966
0 c-1952 0 -1965 0 -1985 -20 -11 -11 -20 -27 -20 -35 0 -12 -17 -15 -92 -15
l-93 1 -20 32 -20 32 -313 3 -313 2 3 758 c4 749 4 758 26 829 76 251 224 454
423 585 121 79 282 144 404 161 17 2 730 4 1585 3 l1555 -1 72 -23z"/>
</g>
</svg>
